<svg xmlns="http://www.w3.org/2000/svg" viewBox="0 0 32 32" id="teddy"><path fill="#f6967d" d="M21 10a4.87 4.87 0 0 1-1.5 3.94A5.33 5.33 0 0 1 16 15a5.33 5.33 0 0 1-3.5-1.06A4.87 4.87 0 0 1 11 10a5 5 0 0 1 .44-2A5.12 5.12 0 0 1 13 6a5 5 0 0 1 6 0 5.12 5.12 0 0 1 1.56 2 5 5 0 0 1 .44 2Z"></path><path fill="#77aa6b" d="M23 6a2 2 0 0 1-1.56 2 2 2 0 0 1-.88 0A5.12 5.12 0 0 0 19 6a2 2 0 0 1 4 0Z"></path><path fill="#f6967d" d="M12.71 26.18a2 2 0 0 1-1 1.39l-.63.36a2 2 0 0 1-2.74-.73l-1.55-2.77a2 2 0 0 1 .73-2.73l.63-.37a2 2 0 0 1 2.73.74l1.6 2.76a2 2 0 0 1 .23 1.35zM7 22.13c-2.91-2.13.54-7.23 5.5-8.19"></path><path fill="#95cd8b" d="M13 6a5.12 5.12 0 0 0-1.56 2A2.12 2.12 0 0 1 11 8a2 2 0 1 1 2-2Zm6.5 7.94A5.33 5.33 0 0 1 16 15a5.33 5.33 0 0 1-3.5-1.06A7 7 0 0 0 9 20a6.15 6.15 0 0 0 .09 1.06 2 2 0 0 1 1.79 1l1.6 2.76a2 2 0 0 1 .23 1.35 7 7 0 0 0 6.58 0 2 2 0 0 1 .23-1.35l1.6-2.76a2 2 0 0 1 1.79-1A6.15 6.15 0 0 0 23 20a7 7 0 0 0-3.5-6.06Z"></path><path fill="#77aa6b" d="M23 20a6.15 6.15 0 0 1-.09 1.06 2 2 0 0 0-1.79 1l-1.6 2.76a2 2 0 0 0-.23 1.35A6.89 6.89 0 0 1 16 27V15a5.33 5.33 0 0 0 3.5-1.06A7 7 0 0 1 23 20Z"></path><path fill="#d37b6a" d="m25.22 24.43-1.6 2.77a2 2 0 0 1-2.73.73l-.64-.36a2 2 0 0 1-.73-2.74l1.6-2.76a2 2 0 0 1 2.73-.74l.63.37a2 2 0 0 1 .74 2.73zm-.22-2.3c2.91-2.13-.54-7.23-5.5-8.19M20.56 8A5.12 5.12 0 0 0 19 6a4.94 4.94 0 0 0-3-1v10a5.33 5.33 0 0 0 3.5-1.06A4.87 4.87 0 0 0 21 10a5 5 0 0 0-.44-2z"></path><path fill="#49361f" d="M26.25 22.31A3.64 3.64 0 0 0 27 19.1c-.54-2.4-2.89-4.67-5.74-5.71A6.8 6.8 0 0 0 22 10a5.54 5.54 0 0 0-.12-1.15 3 3 0 1 0-3.48-4.32 6.15 6.15 0 0 0-4.8 0 3 3 0 1 0-3.48 4.32A5.54 5.54 0 0 0 10 10a6.8 6.8 0 0 0 .78 3.39c-2.85 1-5.2 3.31-5.74 5.71a3.64 3.64 0 0 0 .71 3.21 2.48 2.48 0 0 0-.13.35 2.94 2.94 0 0 0 .3 2.27l1.6 2.77a3 3 0 0 0 4.1 1.1l.63-.37a2.74 2.74 0 0 0 1-.93 7.92 7.92 0 0 0 5.54 0 3.19 3.19 0 0 0 1 .94l.62.35a3 3 0 0 0 1.51.41 2.84 2.84 0 0 0 .76-.1 2.93 2.93 0 0 0 1.84-1.4l1.59-2.77a3 3 0 0 0 .3-2.27 2.48 2.48 0 0 0-.16-.35ZM25 19.54a1.73 1.73 0 0 1-.13 1.23l-.52-.3a2.66 2.66 0 0 0-.39-.16V20a7.84 7.84 0 0 0-.57-2.93A5.34 5.34 0 0 1 25 19.54ZM21 5a1 1 0 0 1 .23 2h-.05v-.05a6.2 6.2 0 0 0-.47-.67 6.1 6.1 0 0 0-.55-.59A1 1 0 0 1 21 5Zm-2.61 1.8a4.15 4.15 0 0 1 1.26 1.56A4.1 4.1 0 0 1 20 10a4 4 0 0 1-1.15 3.18 3.58 3.58 0 0 1-1.85.74v-1.2A2 2 0 1 0 14 11a2 2 0 0 0 1 1.72v1.2a3.58 3.58 0 0 1-1.85-.74A4 4 0 0 1 12 10a4.06 4.06 0 0 1 .35-1.64 3.75 3.75 0 0 1 .24-.44 4 4 0 0 1 1-1.12 4 4 0 0 1 4.78 0ZM11 5a1 1 0 0 1 .92.61 6 6 0 0 0-.54.58 4.57 4.57 0 0 0-.47.68A1 1 0 0 1 10 6a1 1 0 0 1 1-1Zm.25 21.7-.63.37a1 1 0 0 1-.76.1 1 1 0 0 1-.61-.47l-1.6-2.78a1 1 0 0 1-.1-.74 1 1 0 0 1 .45-.62l.62-.37a1 1 0 0 1 .45-.13H9.36l.11.05.13.05a.86.86 0 0 1 .18.14.83.83 0 0 1 .16.21l1.6 2.75a1 1 0 0 1 .12.66.93.93 0 0 1-.41.78Zm2.48-1.14v-.1c0-.04-.05-.26-.08-.39s0-.12-.05-.18a3.1 3.1 0 0 0-.25-.56l-1.59-2.76a3.33 3.33 0 0 0-.46-.59l-.09-.08a3.11 3.11 0 0 0-1.2-.71V20a1 1 0 0 0-2 0v.3c0 .1-.27.1-.39.17l-.52.3a1.73 1.73 0 0 1-.1-1.23A5.4 5.4 0 0 1 8.67 17a1 1 0 0 0 1.91.46 5.9 5.9 0 0 1 1.89-2.28l.13.06.28.14a4.6 4.6 0 0 0 .61.25l.34.11a5.25 5.25 0 0 0 .71.16l.33.06a9.16 9.16 0 0 0 2.26 0l.33-.06a5.25 5.25 0 0 0 .71-.16l.34-.11a4 4 0 0 0 .6-.25l.29-.14.13-.06A6 6 0 0 1 22 20v.19a2.92 2.92 0 0 0-1.18.69l-.12.12a3.21 3.21 0 0 0-.45.58l-1.6 2.76a3.82 3.82 0 0 0-.24.55v.17a2.07 2.07 0 0 0-.08.42.29.29 0 0 0 0 .09 6.14 6.14 0 0 1-4.6-.01Zm10.62-1.63-1.6 2.77a1 1 0 0 1-.61.47 1 1 0 0 1-.76-.11l-.61-.35a1 1 0 0 1-.5-.71 1 1 0 0 1 .11-.67L22 22.57a1 1 0 0 1 .56-.45H22.9a1.17 1.17 0 0 1 .45.13l.64.38a1 1 0 0 1 .47.61.94.94 0 0 1-.11.69Z"></path></svg>